<svg width="80" height="80" viewBox="0 0 80 80" fill="none" xmlns="http://www.w3.org/2000/svg">
<path d="M31.4992 62.7497C31.4367 62.7497 30.8117 67.7497 30.7492 67.8747C30.6242 68.9372 30.4367 69.5622 29.8742 70.0622C29.6867 70.2497 29.4992 70.3122 29.3117 70.4372C28.8742 70.7497 28.4992 70.9372 27.9992 71.2497C27.6242 71.4372 27.1867 72.1872 27.6242 72.3747H52.3742C52.8117 72.1872 52.3742 71.4997 51.9992 71.3122C51.4992 70.9997 51.1242 70.7497 50.6867 70.3747C50.4992 70.2497 50.3117 70.0622 50.1242 69.8747C49.6242 69.3747 49.3742 68.9372 49.2492 67.8747C49.2492 67.7497 48.4992 62.3122 48.4992 62.7497" fill="#D2D5D6"/>
<path d="M77.5 55.0625V9.6875C77.5 8.5625 76.625 7.625 75.5 7.625H4.5C3.375 7.625 2.5 8.5625 2.5 9.6875V55.125" fill="black"/>
<path d="M2.5 55V60.6875C2.5 61.8125 3.375 62.75 4.5 62.75H75.4375C76.5625 62.75 77.4375 61.8125 77.4375 60.6875V55" fill="#D2D5D6"/>
<path d="M38.0625 58.9375C38.0625 59.4348 38.26 59.9117 38.6117 60.2633C38.9633 60.615 39.4402 60.8125 39.9375 60.8125C40.4348 60.8125 40.9117 60.615 41.2633 60.2633C41.615 59.9117 41.8125 59.4348 41.8125 58.9375C41.8125 58.4402 41.615 57.9633 41.2633 57.6117C40.9117 57.26 40.4348 57.0625 39.9375 57.0625C39.4402 57.0625 38.9633 57.26 38.6117 57.6117C38.26 57.9633 38.0625 58.4402 38.0625 58.9375Z" fill="#414343"/>
<rect width="72" height="45" transform="translate(4 9)" fill="#0050B3"/>
<path d="M76 9.00075L75.5 9C73.7621 9.75142 74.8117 8.95062 73.8366 9.71084C73.733 9.69186 74.55 9.56027 75.4332 9.08749C75.4616 9.04061 73.4527 9.76793 73.7004 9.71084C73.3685 9.78734 74.3633 9.0598 74.018 9.76529C74.8087 9.00062 74.4761 9.77531 74.5 9.58888C74.5292 9.35222 73.6535 9.82359 73.7004 9.71084C73.8077 9.45632 73.7494 9.89827 74 10C73.7494 9.89827 74.8087 9.00062 74.018 9.76529C74.3144 9.15976 75.5 9.00001 74.4204 9.56482C74.486 9.45989 73.9424 9.55582 74 9.5C74.0718 9.43302 74.1235 9.83673 74.1926 9.76529C74.447 9.50295 74 9.5 74.5 9.58888C74.3857 9.40692 73.2444 10.3714 73.0264 10.2743C72.6817 10.1225 72.3365 10.1158 71.9909 10.2542C71.8704 10.3022 71.8066 10.3273 71.7995 10.3295C70.8672 10.6566 69.919 10.7844 68.9548 10.713C68.7918 10.7007 68.5901 10.7253 68.35 10.7867C68.1346 10.8436 67.9016 10.8648 67.6508 10.8503C67.3087 10.8313 66.9383 10.8453 66.5395 10.8922C66.1814 10.9346 65.8185 11.0211 65.4508 11.1517C64.3537 11.5391 63.3132 12.0939 62.3296 12.8161C62.1249 12.9668 61.8382 13.2264 61.4695 13.5948C61.1771 13.8873 60.8864 14.1412 60.5975 14.3567C59.9949 14.8054 59.4361 15.2425 58.9212 15.6678C58.2415 16.2293 57.6797 16.6569 57.2357 16.9504C55.6556 17.992 54.0011 18.976 52.2721 19.9026C51.3593 20.3926 50.4678 21.0139 49.5975 21.7663C49.5461 21.8098 49.5045 21.8946 49.4726 22.0208C49.4522 22.0219 49.4318 22.0247 49.4114 22.0292C49.3919 22.0336 49.3738 22.0448 49.3569 22.0626C46.8073 24.6 44.4226 27.5779 42.2026 30.996C42.0156 31.2852 41.9022 31.4889 41.8623 31.6072L40.6327 33.337C40.5813 33.241 40.5459 33.1366 40.5264 33.0238C40.5078 32.9222 40.5228 32.8179 40.5716 32.7107C40.7825 32.2441 41.0554 31.9086 41.3904 31.7043C41.6058 31.5737 41.6217 31.4119 41.4383 31.2187C40.4537 30.185 39.4452 29.2066 38.4128 28.2834C37.4149 27.3925 36.6829 26.7629 36.2168 26.3946C35.2526 25.6343 34.2392 24.9924 33.1767 24.4689C32.4757 24.1228 31.9714 23.9018 31.6639 23.8058C31.1623 23.6495 30.6266 23.5764 30.0568 23.5864C29.3603 23.5998 28.5458 23.5334 27.6135 23.3872C27.6029 23.3849 27.3534 23.3548 26.8652 23.2967C26.4956 23.2532 26.1004 23.1606 25.6794 23.0188C25.5943 22.9903 25.5252 22.9116 25.4946 22.8078C25.4619 22.695 25.3901 22.656 25.2793 22.6906C26.6458 21.1512 28.1191 19.7976 29.6992 18.63C30.4498 18.0629 31.2381 17.5895 32.064 17.21C32.1797 17.1581 32.2382 16.9973 32.1957 16.8516C32.1212 16.596 31.9205 16.4699 31.5935 16.4732C31.3055 16.4754 31.1854 16.3599 31.2332 16.1266C31.2625 15.9848 31.3303 15.871 31.4366 15.785C31.5633 15.6823 31.7237 15.6248 31.9178 15.6125C32.1429 15.598 32.2754 15.4479 32.3153 15.1621C32.3246 15.0968 32.3485 15.0449 32.3778 15.0248L32.6941 14.8105C32.7167 14.7954 32.7646 14.792 32.8217 14.8038C32.9183 14.8227 32.9954 14.7943 33.053 14.7184C33.0938 14.6637 33.1204 14.5604 33.1328 14.4086C33.1514 14.1697 33.1882 13.9353 33.2431 13.7053C33.2564 13.6517 33.283 13.6065 33.3189 13.5797C33.4944 13.4513 33.6836 13.3682 33.8865 13.3302C33.9397 13.3213 33.98 13.3012 34.0075 13.2699C34.0677 13.2029 34.0708 13.1399 34.0168 13.0807C33.9955 13.0562 33.9494 13.0305 33.8785 13.0037C33.6836 12.93 33.5861 12.7838 33.5861 12.565C33.5861 12.4277 33.602 12.2602 33.6339 12.0626C33.6783 11.7835 33.8263 11.6289 34.0779 11.5988C34.124 11.5932 34.1648 11.5759 34.2002 11.5469C34.4829 11.3169 34.786 11.1444 35.1095 11.0295C35.148 11.0161 35.1826 10.9809 35.2025 10.9323C35.2805 10.7459 35.4001 10.6438 35.5614 10.6259C35.7413 10.6058 35.8366 10.5947 35.8472 10.5924C35.9864 10.5634 36.1525 10.5517 36.3457 10.5573C36.9182 10.574 37.5718 10.5182 38.3064 10.3898C38.9738 10.2726 39.9229 10.2039 41.1538 10.1838C41.2477 10.1827 41.4525 10.1548 41.7679 10.1001C41.9939 10.0622 42.2026 10.075 42.394 10.1386C42.6652 10.2291 42.9169 10.2692 43.1491 10.2592C43.508 10.2447 43.6923 10.2374 43.7021 10.2374C44.1088 10.2531 44.8444 10.2653 45.9087 10.2743C46.2029 10.2765 46.4497 10.267 46.6491 10.2458C46.9726 10.2123 47.2168 10.2017 47.3816 10.214C47.931 10.2575 48.4508 10.2603 48.9409 10.2224C50.0761 10.1353 51.186 10.1688 52.2707 10.3228C52.7449 10.3898 53.1858 10.4133 53.5934 10.3932C54.4362 10.3519 55.0454 10.3507 55.4212 10.3898C56.17 10.468 56.9175 10.4685 57.6637 10.3915C58.2681 10.329 58.7409 10.2977 59.0821 10.2977C59.7769 10.2966 60.2514 10.2854 60.5058 10.2642C61.2679 10.2006 62.0309 10.1526 62.7948 10.1202C63.1661 10.1035 63.5645 10.0504 63.9899 9.96114C64.386 9.87742 64.7839 9.80765 65.1836 9.75183C65.3227 9.73174 65.4818 9.64578 65.6608 9.49396C65.6794 9.47833 65.7007 9.46717 65.7246 9.46047C65.8478 9.42698 65.8478 9.38791 65.7246 9.34326C65.6821 9.32875 65.6821 9.31368 65.7246 9.29805C65.9364 9.2266 65.9466 9.18586 65.7552 9.17581C65.2908 9.15125 64.826 9.13506 64.3607 9.12725C66.4433 9.09264 68.5259 9.07925 70.6085 9.08706C71.2057 9.08929 71.9143 9.07143 72.734 9.03348C73.8099 8.98436 74.5 9.00077 75 9.00036C75.4688 8.99998 75.5 9 76 9.00075Z" fill="#BAE7FF"/>
<path d="M64.3604 9.12656C64.8256 9.13438 65.2904 9.15056 65.7548 9.17512C65.9462 9.18517 65.936 9.22592 65.7242 9.29736C65.6817 9.31299 65.6817 9.32806 65.7242 9.34257C65.8474 9.38722 65.8474 9.4263 65.7242 9.45979C65.7003 9.46649 65.679 9.47765 65.6604 9.49327C65.4814 9.64509 65.3223 9.73105 65.1832 9.75115C64.7835 9.80696 64.3856 9.87673 63.9895 9.96046C63.5641 10.0498 63.1658 10.1028 62.7945 10.1195C62.0305 10.1519 61.2675 10.1999 60.5054 10.2635C60.2511 10.2847 59.7765 10.2959 59.0817 10.297C58.7405 10.297 58.2677 10.3283 57.6634 10.3908C56.9172 10.4678 56.1697 10.4673 55.4208 10.3891C55.0451 10.3501 54.4358 10.3512 53.593 10.3925C53.1854 10.4126 52.7445 10.3891 52.2704 10.3221C51.1857 10.1681 50.0757 10.1346 48.9405 10.2217C48.4504 10.2596 47.9307 10.2568 47.3812 10.2133C47.2164 10.201 46.9722 10.2116 46.6488 10.2451C46.4494 10.2663 46.2026 10.2758 45.9084 10.2736C44.844 10.2647 44.1085 10.2524 43.7017 10.2367C43.692 10.2367 43.5076 10.244 43.1487 10.2585C42.9165 10.2686 42.6649 10.2284 42.3937 10.138C42.2023 10.0743 41.9936 10.0615 41.7676 10.0994C41.4521 10.1541 41.2474 10.182 41.1534 10.1832C39.9225 10.2033 38.9734 10.2719 38.3061 10.3891C37.5714 10.5175 36.9178 10.5733 36.3454 10.5566C36.1522 10.551 35.986 10.5627 35.8469 10.5917C35.8362 10.594 35.741 10.6051 35.5611 10.6252C35.3998 10.6431 35.2802 10.7452 35.2022 10.9317C35.1822 10.9802 35.1477 11.0154 35.1091 11.0288C34.7857 11.1438 34.4826 11.3162 34.1999 11.5462C34.1644 11.5752 34.1237 11.5925 34.0776 11.5981C33.8259 11.6282 33.6779 11.7829 33.6336 12.0619C33.6017 12.2595 33.5857 12.427 33.5857 12.5643C33.5857 12.7831 33.6832 12.9293 33.8782 13.003C33.9491 13.0298 33.9952 13.0555 34.0164 13.08C34.0705 13.1392 34.0674 13.2023 34.0071 13.2692C33.9796 13.3005 33.9393 13.3206 33.8862 13.3295C33.6832 13.3675 33.494 13.4506 33.3185 13.579C33.2826 13.6058 33.2561 13.651 33.2428 13.7046C33.1878 13.9346 33.1511 14.169 33.1324 14.4079C33.12 14.5597 33.0934 14.663 33.0527 14.7177C32.9951 14.7936 32.918 14.822 32.8214 14.8031C32.7642 14.7913 32.7164 14.7947 32.6938 14.8098L32.3774 15.0241C32.3482 15.0442 32.3242 15.0961 32.3149 15.1614C32.275 15.4472 32.1426 15.5973 31.9175 15.6118C31.7234 15.6241 31.563 15.6816 31.4363 15.7843C31.3299 15.8703 31.2621 15.9841 31.2329 16.1259C31.185 16.3592 31.3051 16.4748 31.5931 16.4725C31.9201 16.4692 32.1208 16.5953 32.1953 16.851C32.2378 16.9966 32.1793 17.1574 32.0637 17.2093C31.2377 17.5889 30.4495 18.0622 29.6989 18.6293C29.76 18.4886 29.8681 18.3759 30.0232 18.291C30.0968 18.2508 30.1109 18.2084 30.0657 18.1638C30.0352 18.1353 30.0232 18.0884 30.0352 18.0499C30.0804 17.8992 30.0471 17.758 29.9355 17.6262C29.7139 17.3639 29.6023 17.1144 29.6005 16.8778C29.5987 16.6735 29.5185 16.5518 29.3599 16.5127C28.5605 16.3107 27.8002 15.9763 27.0788 15.5097C26.9618 15.4349 26.8484 15.3796 26.7385 15.3439C26.6189 15.306 26.4988 15.2697 26.3783 15.2351C26.2391 15.1949 26.0712 15.1095 25.8745 14.9789C25.6848 14.8516 25.4504 14.7344 25.1713 14.6272C24.9001 14.5245 24.6679 14.3085 24.4747 13.9792C24.3834 13.8252 24.2957 13.7286 24.2115 13.6895C24.0936 13.6359 23.9713 13.6226 23.8446 13.6493C23.7649 13.6661 23.6904 13.5924 23.6838 13.4903C23.6723 13.3027 23.608 13.2056 23.491 13.1989C23.4644 13.1972 23.4232 13.2224 23.382 13.2659C23.2899 13.363 23.1552 13.3295 22.9779 13.1654C22.9234 13.1135 22.853 13.0951 22.7865 13.1135C22.432 13.2095 22.1613 13.0638 21.9743 12.6765C21.8937 12.5079 21.7771 12.4448 21.6247 12.4873C21.5051 12.5207 21.3974 12.4861 21.3017 12.3834C21.2259 12.3031 21.1302 12.2612 21.0318 12.2662C20.8696 12.2729 20.7292 12.2701 20.6104 12.2579C20.5289 12.2489 20.3977 12.1959 20.217 12.0988C20.0681 12.0184 19.9121 11.9754 19.749 11.9698C19.6888 11.9676 19.5709 12.0044 19.3954 12.0804C19.2669 12.1351 19.1389 12.1406 19.0113 12.0971C18.7578 12.0111 18.6094 11.9648 18.566 11.9581C18.4144 11.938 18.2651 11.9034 18.118 11.8543C17.9159 11.7862 17.7688 11.7449 17.6767 11.7304C17.067 11.631 16.4577 11.621 15.8489 11.7002C15.1567 11.7896 14.7677 11.8376 14.6818 11.8443C14.1022 11.89 13.7131 11.9352 13.5146 11.9799C12.6063 12.1842 11.6939 12.3477 10.7776 12.4705C10.5773 12.4973 10.366 12.5626 10.1435 12.6664C9.93703 12.7624 9.72744 12.8445 9.51475 12.9126C9.33485 12.9706 9.16647 13.0722 9.00962 13.2173C8.71983 13.4864 8.40966 13.708 8.07911 13.8821C7.7583 14.0518 7.4982 14.2187 7.29881 14.3828C6.93015 14.6864 6.55262 14.9716 6.16624 15.2384C5.75327 15.5231 5.50603 15.6855 5.4245 15.7257C5.15598 15.8585 4.87594 15.9121 4.58438 15.8865C4.49664 15.8798 4.4129 15.9333 4.3677 16.0288C4.3225 16.1237 4.27908 16.1622 4.23743 16.1443C4.20686 16.1326 4.17628 16.146 4.17097 16.1745C4.14438 16.3028 4.09253 16.4117 4.01543 16.501C3.99505 14.5485 4.0017 12.5967 4.03538 10.6453C4.04158 10.2714 4.08589 9.99897 4.16831 9.82817C4.25338 9.64956 4.37081 9.51058 4.52057 9.41123C4.6278 9.33978 4.78023 9.29792 4.97785 9.28564C6.0732 9.21866 7.02453 9.18182 7.83186 9.17512C13.7047 9.12712 20.4288 9.11428 28.004 9.13661C40.1228 9.17345 52.2416 9.1701 64.3604 9.12656Z" fill="#91D5FF"/>
<path d="M75.2913 10.5918C75.2417 10.7503 75.2776 10.8441 75.399 10.8731C75.4349 10.8815 75.4628 10.9166 75.4721 10.9635C75.4863 11.0394 75.523 11.0858 75.5824 11.1025C75.609 11.1109 75.621 11.1477 75.605 11.1745C75.5164 11.3185 75.4699 11.4999 75.4654 11.7187C75.461 11.9755 75.4331 12.4242 75.3817 13.065C75.3445 13.5194 75.3334 13.9687 75.3485 14.413C75.3866 15.5862 75.4007 16.4776 75.391 17.0871C75.3866 17.3539 75.3547 17.6927 75.2953 18.1035C75.2536 18.3927 75.2474 18.693 75.2767 19.0044C75.3591 19.8885 75.3307 20.7704 75.1916 21.6501C75.1641 21.8242 75.1575 22.0698 75.1716 22.3869C75.1832 22.6191 75.1619 22.82 75.1078 22.9897C75.0467 23.1828 74.9758 23.3703 74.8952 23.5523C74.8571 23.6383 74.8376 23.7075 74.8367 23.7599C74.834 23.8906 74.9062 23.9268 75.0533 23.8688C73.9412 26.2655 72.8547 28.4251 71.7939 30.3474C69.6245 34.2779 67.0518 37.7877 64.076 40.8765C63.1162 41.8723 62.421 42.5644 61.9903 42.9529C61.0084 43.8381 60.0003 44.5202 58.9661 44.9991C58.1216 45.3898 57.2952 45.2397 56.487 44.5487C55.9987 44.1714 55.6008 43.8052 55.2933 43.4502C54.6535 42.7101 53.9241 41.7729 53.1053 40.6388C51.0466 37.7866 48.641 35.5143 45.8885 33.8219C44.5308 32.9869 43.354 32.3367 42.3579 31.8712L41.8594 31.6066C41.8993 31.4883 42.0127 31.2845 42.1997 30.9954C44.4196 27.5772 46.8044 24.5994 49.354 22.062C49.3708 22.0442 49.389 22.033 49.4085 22.0285C49.4289 22.0241 49.4492 22.0213 49.4696 22.0202C50.4631 22.3417 51.456 22.6654 52.4486 22.9914C53.3764 23.2961 54.1457 23.5049 54.7563 23.6176C55.6176 23.7773 56.4033 23.861 57.1131 23.8688C57.9107 23.8777 58.827 23.732 59.8621 23.4318C62.3124 22.7195 64.6334 21.4313 66.825 19.567C68.5619 18.0913 70.0658 16.6668 71.3366 15.2938C72.7191 13.8124 74.0373 12.2451 75.2913 10.5918Z" fill="#1890FF"/>
<path d="M29.6971 18.6312C28.117 19.7989 26.6437 21.1524 25.2772 22.6918L23.8149 24.3663L23.7485 24.4216L23.3922 24.1051C23.347 24.0649 23.3085 24.0409 23.2766 24.0331C22.2823 23.8098 20.6228 23.5185 18.2983 23.159C17.4272 23.0239 16.6048 23.0312 15.8312 23.1808C15.4341 23.2567 14.6445 23.5095 13.4623 23.9393C10.5645 24.9909 7.8044 26.4667 5.18213 28.3666C4.95261 28.533 4.75808 28.7473 4.59857 29.0097C4.44348 29.2631 4.31321 29.3641 4.20775 29.3127C4.10407 29.2625 4.03937 29.3044 4.01367 29.4383V16.5029C4.09077 16.4136 4.14262 16.3048 4.16921 16.1764C4.17452 16.1479 4.2051 16.1345 4.23567 16.1463C4.27732 16.1641 4.32074 16.1256 4.36594 16.0307C4.41114 15.9353 4.49488 15.8817 4.58262 15.8884C4.87418 15.9141 5.15422 15.8605 5.42274 15.7276C5.50427 15.6874 5.75151 15.525 6.16448 15.2404C6.55086 14.9736 6.92839 14.6883 7.29705 14.3847C7.49644 14.2206 7.75654 14.0537 8.07735 13.884C8.4079 13.7099 8.71807 13.4883 9.00786 13.2193C9.16471 13.0741 9.33309 12.9725 9.51299 12.9145C9.72568 12.8464 9.93527 12.7644 10.1418 12.6684C10.3642 12.5645 10.5755 12.4992 10.7758 12.4724C11.6922 12.3496 12.6045 12.1861 13.5129 11.9818C13.7114 11.9372 14.1004 11.8919 14.68 11.8462C14.766 11.8395 15.155 11.7915 15.8471 11.7022C16.4559 11.6229 17.0652 11.633 17.6749 11.7323C17.7671 11.7468 17.9142 11.7881 18.1162 11.8562C18.2633 11.9053 18.4127 11.9399 18.5642 11.96C18.6076 11.9667 18.7561 12.0131 19.0095 12.099C19.1371 12.1426 19.2652 12.137 19.3937 12.0823C19.5692 12.0064 19.687 11.9695 19.7473 11.9718C19.9103 11.9773 20.0663 12.0203 20.2152 12.1007C20.396 12.1978 20.5271 12.2508 20.6087 12.2598C20.7274 12.2721 20.8679 12.2748 21.0301 12.2681C21.1284 12.2631 21.2241 12.305 21.2999 12.3854C21.3956 12.4881 21.5033 12.5227 21.6229 12.4892C21.7754 12.4468 21.8919 12.5098 21.9725 12.6784C22.1595 13.0658 22.4303 13.2114 22.7847 13.1154C22.8512 13.097 22.9216 13.1154 22.9762 13.1673C23.1534 13.3314 23.2881 13.3649 23.3803 13.2678C23.4215 13.2243 23.4627 13.1992 23.4893 13.2008C23.6062 13.2075 23.6705 13.3047 23.682 13.4922C23.6887 13.5943 23.7631 13.668 23.8429 13.6513C23.9696 13.6245 24.0919 13.6379 24.2097 13.6915C24.2939 13.7305 24.3817 13.8271 24.4729 13.9811C24.6661 14.3105 24.8983 14.5265 25.1695 14.6292C25.4487 14.7363 25.683 14.8536 25.8727 14.9808C26.0694 15.1114 26.2374 15.1968 26.3765 15.237C26.497 15.2716 26.6171 15.3079 26.7367 15.3459C26.8466 15.3816 26.9601 15.4368 27.077 15.5116C27.7984 15.9782 28.5588 16.3126 29.3581 16.5146C29.5168 16.5537 29.597 16.6754 29.5987 16.8797C29.6005 17.1163 29.7122 17.3658 29.9337 17.6282C30.0454 17.7599 30.0786 17.9011 30.0334 18.0518C30.0215 18.0903 30.0334 18.1372 30.064 18.1657C30.1092 18.2103 30.095 18.2528 30.0214 18.2929C29.8664 18.3778 29.7582 18.4905 29.6971 18.6312Z" fill="#E6F7FF"/>
<path d="M75.8926 21.9795C75.9608 22.6203 75.9954 23.2644 75.9963 23.9118C76.0096 33.8192 75.9857 43.7841 75.9245 53.8064C75.9232 53.8969 75.866 53.9689 75.7956 53.9689L61.9017 53.9203L60.4727 53.8784C60.6216 53.817 60.6548 53.6937 60.5724 53.5084C60.5104 53.3688 60.4249 53.2946 60.3159 53.2857C60.2667 53.2823 60.2255 53.2622 60.2002 53.2304C60.0487 53.0317 59.9401 52.7336 59.8745 52.3362C59.6964 51.2612 59.1638 50.5842 58.2767 50.3051C58.2377 50.2928 58.2005 50.2666 58.1651 50.2264C58.0188 50.0634 57.8575 50.0377 57.6812 50.1494C57.6426 50.1728 57.6001 50.1711 57.5682 50.146C57.3059 49.9395 57.025 49.7871 56.7254 49.6889C56.6829 49.6744 56.5881 49.6091 56.441 49.493C56.4179 49.474 56.3776 49.4511 56.32 49.4243C56.2314 49.383 56.2167 49.3199 56.2761 49.2351C56.3094 49.1865 56.2934 49.1112 56.2442 49.0928C55.8109 48.9264 55.6779 48.6088 55.8454 48.14C55.9473 47.8542 56.0373 47.2776 56.1153 46.4102C56.1162 46.4024 56.121 46.1111 56.1299 45.5361C56.1343 45.2336 56.1804 44.9277 56.2681 44.6185C56.2828 44.57 56.3306 44.5516 56.3639 44.585C56.4365 44.6587 56.4786 44.647 56.4901 44.5499C57.2983 45.2409 58.1247 45.391 58.9693 45.0003C60.0035 44.5214 61.0115 43.8393 61.9934 42.9541C62.4241 42.5656 63.1194 41.8735 64.0791 40.8777C67.055 37.7889 69.6276 34.2791 71.797 30.3486C72.8578 28.4263 73.9443 26.2667 75.0565 23.87L75.8926 21.9795Z" fill="#002766"/>
<path d="M40.6321 33.3373C39.1663 35.5666 37.7909 37.8807 36.5059 40.2797C36.4093 40.3098 36.3641 40.2713 36.3703 40.1642C35.1669 38.4294 33.7738 36.9865 32.191 35.8356C32.191 35.6883 32.191 35.5403 32.191 35.3919C32.191 35.2389 32.1751 35.0949 32.1431 34.9599C32.0147 34.4229 31.8339 33.8625 31.6008 33.2787C30.8014 31.2704 29.8031 29.4815 28.6059 27.9119C28.2 27.3783 27.8127 26.9603 27.4441 26.6578C27.0435 26.3273 26.5902 26.0226 26.0842 25.7435C25.1342 25.2188 24.5037 24.8778 24.1926 24.7204C24.1155 24.6813 24.0486 24.63 23.9919 24.5663C23.9325 24.5005 23.874 24.4335 23.8164 24.3654L25.2786 22.6909C25.3894 22.6563 25.4612 22.6954 25.494 22.8081C25.5246 22.9119 25.5937 22.9906 25.6788 23.0191C26.0997 23.1609 26.4949 23.2535 26.8645 23.2971C27.3528 23.3551 27.6023 23.3853 27.6129 23.3875C28.5452 23.5337 29.3596 23.6001 30.0561 23.5868C30.626 23.5767 31.1617 23.6498 31.6633 23.8061C31.9708 23.9021 32.475 24.1231 33.176 24.4692C34.2386 24.9928 35.2519 25.6347 36.2161 26.3949C36.6823 26.7633 37.4143 27.3929 38.4121 28.2837C39.4446 29.2069 40.4531 30.1853 41.4376 31.2191C41.6211 31.4122 41.6051 31.574 41.3898 31.7047C41.0548 31.9089 40.7818 32.2444 40.5709 32.711C40.5222 32.8182 40.5071 32.9226 40.5257 33.0241C40.5452 33.1369 40.5807 33.2413 40.6321 33.3373Z" fill="#91D5FF"/>
<path d="M23.7485 24.4212L21.4554 27.4219L17.7666 32.7802C16.1077 35.2942 15.1191 36.7722 14.801 37.2143C12.7122 40.1145 10.3553 42.6134 7.7304 44.7109C6.58188 45.3696 5.37709 45.7659 4.11603 45.8998C4.06109 45.9523 4.0345 45.935 4.03628 45.8479L4.01367 29.438C4.03937 29.304 4.10407 29.2621 4.20775 29.3124C4.31321 29.3637 4.44348 29.2627 4.59857 29.0093C4.75808 28.747 4.95261 28.5326 5.18213 28.3663C7.8044 26.4663 10.5645 24.9905 13.4623 23.939C14.6445 23.5092 15.4341 23.2563 15.8312 23.1804C16.6048 23.0308 17.4272 23.0236 18.2983 23.1586C20.6228 23.5181 22.2823 23.8095 23.2766 24.0327C23.3085 24.0405 23.347 24.0645 23.3922 24.1047L23.7485 24.4212Z" fill="#69C0FF"/>
<path d="M23.815 24.3652C23.8726 24.4333 23.9311 24.5003 23.9905 24.5662C24.0472 24.6298 24.1141 24.6812 24.1912 24.7202C24.5023 24.8776 25.1328 25.2187 26.0828 25.7433C26.5888 26.0224 27.0421 26.3272 27.4427 26.6576C27.8113 26.9601 28.1986 27.3782 28.6045 27.9118C29.8017 29.4813 30.8 31.2703 31.5994 33.2785C31.8325 33.8624 32.0133 34.4227 32.1418 34.9597C32.1737 35.0948 32.1896 35.2388 32.1896 35.3917C32.1896 35.5402 32.1896 35.6881 32.1896 35.8355C31.3149 35.4302 30.7943 35.2092 30.6277 35.1724C30.3175 35.1032 30.0738 35.1032 29.8966 35.1724C28.3457 35.7741 26.8901 36.6325 25.5298 37.7477C23.8319 39.1387 22.5154 40.1607 21.5805 40.8137C19.3561 42.3665 16.896 43.4058 14.2002 43.9316C12.185 44.3257 10.1613 44.6287 8.12926 44.8408C7.98481 44.8554 7.85188 44.8118 7.73047 44.7102C10.3554 42.6127 12.7122 40.1138 14.801 37.2136C15.1192 36.7715 16.1077 35.2935 17.7667 32.7795C17.8323 32.8309 17.8961 32.8158 17.9581 32.7343C18.7486 31.6861 19.4624 30.6697 20.0996 29.6851C20.3345 29.3234 20.5392 29.0287 20.7137 28.8009C20.93 28.5174 21.1498 28.2406 21.3731 27.9704C21.4329 27.8984 21.4754 27.8063 21.494 27.7042C21.5295 27.5133 21.5166 27.4189 21.4555 27.4212L23.7485 24.4205L23.815 24.3652Z" fill="#BAE7FF"/>
<path d="M42.3612 31.873C43.3573 32.3386 44.5341 32.9888 45.8918 33.8238C48.6443 35.5162 51.0499 37.7885 53.1086 40.6407C53.9274 41.7748 54.6568 42.712 55.2966 43.4521C55.6041 43.8071 56.002 44.1733 56.4903 44.5506C56.4788 44.6477 56.4367 44.6594 56.364 44.5857C56.3308 44.5523 56.2829 44.5707 56.2683 44.6192C56.1806 44.9284 56.1345 45.2343 56.1301 45.5369C56.1212 46.1118 56.1163 46.4031 56.1154 46.4109C56.0375 47.2783 55.9475 47.8549 55.8456 48.1407C55.6781 48.6095 55.811 48.9271 56.2444 49.0935C56.2936 49.1119 56.3095 49.1872 56.2763 49.2358C56.2169 49.3206 56.2315 49.3837 56.3202 49.425C56.3778 49.4518 56.4181 49.4747 56.4411 49.4937C56.5882 49.6098 56.6831 49.6751 56.7256 49.6896C57.0251 49.7878 57.3061 49.9402 57.5684 50.1467C57.6003 50.1718 57.6428 50.1735 57.6814 50.1501C57.8577 50.0384 58.019 50.0641 58.1652 50.2271C58.2007 50.2673 58.2379 50.2935 58.2769 50.3058C59.164 50.5849 59.6966 51.2619 59.8747 52.3369C59.9403 52.7343 60.0488 53.0324 60.2004 53.2311C60.2256 53.2629 60.2669 53.283 60.316 53.2864C60.425 53.2953 60.5106 53.3695 60.5726 53.5091C60.655 53.6944 60.6218 53.8177 60.4729 53.8791L60.0183 53.8523C59.8703 53.8434 59.7741 53.7452 59.7298 53.5576C59.5836 52.9358 59.4179 52.3475 59.2327 51.7927C59.1573 51.5672 59.0705 51.3964 58.9721 51.2803C58.8454 51.1296 58.7031 51.0213 58.5454 50.9555C56.9449 50.2801 55.2789 49.7582 53.5472 49.3898C52.7497 49.219 52.0558 49.0801 51.4655 48.9729C50.8612 48.8624 50.1637 48.7558 49.3732 48.6531C46.0943 48.2244 42.9926 48.0173 40.0681 48.0318H39.769C39.746 47.9939 39.7367 47.9515 39.7411 47.9046C39.7491 47.8331 39.7482 47.7807 39.7385 47.7472C39.0286 45.2768 38.0307 42.971 36.7449 40.8299C36.6704 40.7043 36.6651 40.5335 36.7342 40.4012C37.6488 38.6553 38.6059 37.0109 39.6055 35.4682C39.6082 35.4637 39.66 35.366 39.7611 35.1751C39.8302 35.0456 39.941 34.8882 40.0934 34.7029C40.5622 34.1314 40.9694 33.499 41.315 32.8057C41.4408 32.5523 41.6145 32.3023 41.8361 32.0556C41.9105 31.9718 42.0142 31.9384 42.1126 31.9685C42.2579 32.0109 42.3408 31.9791 42.3612 31.873Z" fill="#003A8C"/>
<path d="M32.1885 35.8351C33.7713 36.9861 35.1644 38.4289 36.3678 40.1637C36.3616 40.2708 36.4068 40.3093 36.5034 40.2792L36.409 40.4818C35.2428 42.5258 34.135 44.6189 33.0858 46.7611L32.1832 48.5679C31.4414 48.7856 30.6961 48.9804 29.9473 49.1523C28.9512 49.3823 28.2064 49.5709 27.7127 49.7183C25.7445 50.3055 24.0129 50.8988 22.5178 51.4983C22.0588 51.6824 21.7172 52.0871 21.4929 52.7123L21.0476 53.8007C21.0303 53.8459 20.9918 53.8743 20.9493 53.8743C15.3928 53.8565 9.81947 53.8984 4.22931 53.9999C4.12563 54.0016 4.04055 53.8978 4.03789 53.7689C3.98827 51.1812 3.98739 48.5406 4.03524 45.8469C4.03347 45.9339 4.06005 45.9512 4.115 45.8988C5.37606 45.7648 6.58085 45.3685 7.72937 44.7099C7.85078 44.8115 7.98371 44.855 8.12816 44.8405C10.1602 44.6284 12.1839 44.3253 14.1991 43.9313C16.8949 43.4055 19.355 42.3662 21.5794 40.8134C22.5143 40.1603 23.8307 39.1383 25.5287 37.7474C26.889 36.6322 28.3446 35.7737 29.8955 35.172C30.0727 35.1028 30.3164 35.1028 30.6266 35.172C30.7932 35.2089 31.3138 35.4299 32.1885 35.8351Z" fill="#096DD9"/>
<path d="M76 9L73 11H72.5L71 10.5L72 10L74.5 9H76Z" fill="#BAE7FF"/>
</svg>
