<svg width="14" height="18" viewBox="0 0 14 18" fill="none" xmlns="http://www.w3.org/2000/svg">
<path d="M7.00202 8.625C7.40356 8.625 7.74669 8.48202 8.03141 8.19606C8.31613 7.91012 8.4585 7.56637 8.4585 7.16481C8.4585 6.76327 8.31552 6.42014 8.02956 6.13542C7.74361 5.8507 7.39986 5.70833 6.99831 5.70833C6.59677 5.70833 6.25363 5.85131 5.96891 6.13727C5.68419 6.42322 5.54183 6.76697 5.54183 7.16852C5.54183 7.57006 5.68481 7.9132 5.97077 8.19792C6.25671 8.48264 6.60046 8.625 7.00202 8.625ZM7.00016 15.5208C8.84738 13.8403 10.212 12.316 11.0939 10.9479C11.9759 9.57986 12.4168 8.375 12.4168 7.33333C12.4168 5.69736 11.894 4.35781 10.8482 3.31469C9.80254 2.27156 8.51984 1.75 7.00016 1.75C5.48048 1.75 4.19779 2.27156 3.15208 3.31469C2.10636 4.35781 1.5835 5.69736 1.5835 7.33333C1.5835 8.375 2.03488 9.57986 2.93766 10.9479C3.84044 12.316 5.19461 13.8403 7.00016 15.5208ZM7.00016 17.1667C4.76405 15.2639 3.09391 13.4965 1.98975 11.8646C0.885579 10.2326 0.333496 8.72222 0.333496 7.33333C0.333496 5.25 1.00363 3.59028 2.34391 2.35417C3.68419 1.11806 5.23627 0.5 7.00016 0.5C8.76405 0.5 10.3161 1.11806 11.6564 2.35417C12.9967 3.59028 13.6668 5.25 13.6668 7.33333C13.6668 8.72222 13.1147 10.2326 12.0106 11.8646C10.9064 13.4965 9.23627 15.2639 7.00016 17.1667Z" fill="black"/>
</svg>
